<?xml version="1.0" encoding="utf-8"?>
<!-- Generator: Adobe Illustrator 23.1.0, SVG Export Plug-In . SVG Version: 6.00 Build 0)  -->
<svg version="1.1" xmlns="http://www.w3.org/2000/svg" xmlns:xlink="http://www.w3.org/1999/xlink" x="0px" y="0px"
	 viewBox="0 0 25 25" style="enable-background:new 0 0 25 25;" xml:space="preserve">
<style type="text/css">
	.st0{display:none;}
	.st1{display:inline;}
	.st2{fill:#1B1638;}
</style>
<g id="Layer_1" class="st0">
	<g class="st1">
		<path class="st2" d="M23,3.6c-1.3-1.4-3.1-2.2-5-2.2c-1.4,0-2.8,0.5-3.9,1.4c-0.6,0.5-1.1,1-1.6,1.7c-0.5-0.6-1-1.2-1.6-1.7
			C9.7,1.8,8.4,1.4,7,1.4c-1.9,0-3.7,0.8-5,2.2C0.7,4.9,0,6.8,0,8.9c0,2.1,0.8,4,2.5,6.1c1.5,1.8,3.7,3.7,6.2,5.8
			c0.9,0.7,1.8,1.6,2.8,2.4c0.3,0.2,0.6,0.4,1,0.4c0.4,0,0.7-0.1,1-0.4c1-0.9,2-1.7,2.8-2.4c2.5-2.1,4.7-4,6.2-5.8
			c1.7-2,2.5-4,2.5-6.1C25,6.8,24.3,4.9,23,3.6z"/>
	</g>
</g>
<g id="Layer_2">
	<g>
		<path class="st2" d="M12.5,23.6c-0.4,0-0.7-0.1-1-0.4c-1-0.9-2-1.7-2.8-2.4l0,0c-2.5-2.1-4.7-4-6.2-5.8C0.8,12.9,0,11,0,8.9
			c0-2.1,0.7-3.9,2-5.3c1.3-1.4,3.1-2.2,5-2.2c1.4,0,2.8,0.5,3.9,1.4c0.6,0.5,1.1,1,1.6,1.7c0.5-0.6,1-1.2,1.6-1.7
			c1.2-0.9,2.5-1.4,3.9-1.4c1.9,0,3.7,0.8,5,2.2c1.3,1.4,2,3.3,2,5.3c0,2.1-0.8,4-2.5,6.1c-1.5,1.8-3.7,3.7-6.2,5.8
			c-0.9,0.7-1.8,1.6-2.8,2.4C13.2,23.5,12.9,23.6,12.5,23.6z M7,2.8c-1.5,0-2.9,0.6-3.9,1.7C2,5.7,1.5,7.2,1.5,8.9
			c0,1.8,0.7,3.4,2.1,5.2c1.4,1.7,3.6,3.5,6,5.6l0,0c0.9,0.7,1.8,1.6,2.9,2.5c1-0.9,2-1.7,2.9-2.5c2.5-2.1,4.6-3.9,6-5.6
			c1.5-1.8,2.1-3.4,2.1-5.2c0-1.7-0.6-3.2-1.6-4.3c-1-1.1-2.4-1.7-3.9-1.7c-1.1,0-2.1,0.4-3,1c-0.8,0.6-1.4,1.4-1.7,2
			c-0.2,0.3-0.5,0.5-0.8,0.5s-0.6-0.2-0.8-0.5c-0.3-0.5-0.9-1.3-1.7-2C9.1,3.2,8.1,2.8,7,2.8z"/>
	</g>
</g>
</svg>
