<?xml version="1.0" encoding="UTF-8" standalone="no"?>
<svg
   xmlns:dc="http://purl.org/dc/elements/1.1/"
   xmlns:cc="http://creativecommons.org/ns#"
   xmlns:rdf="http://www.w3.org/1999/02/22-rdf-syntax-ns#"
   xmlns:svg="http://www.w3.org/2000/svg"
   xmlns="http://www.w3.org/2000/svg"
   xmlns:sodipodi="http://sodipodi.sourceforge.net/DTD/sodipodi-0.dtd"
   xmlns:inkscape="http://www.inkscape.org/namespaces/inkscape"
   inkscape:version="1.0 (4035a4fb49, 2020-05-01)"
   sodipodi:docname="logoo.svg"
   viewBox="0 0 554.24196 309.70256"
   height="309.70255"
   width="554.24194"
   xml:space="preserve"
   id="svg2"
   version="1.1"><metadata
     id="metadata8"><rdf:RDF><cc:Work
         rdf:about=""><dc:format>image/svg+xml</dc:format><dc:type
           rdf:resource="http://purl.org/dc/dcmitype/StillImage" /><dc:title></dc:title></cc:Work></rdf:RDF></metadata><defs
     id="defs6" /><sodipodi:namedview
     inkscape:current-layer="g12"
     inkscape:window-maximized="1"
     inkscape:window-y="-9"
     inkscape:window-x="-9"
     inkscape:cy="-46.042384"
     inkscape:cx="280.90082"
     inkscape:zoom="0.62250004"
     fit-margin-bottom="0"
     fit-margin-right="0"
     fit-margin-left="0"
     fit-margin-top="0"
     showgrid="false"
     inkscape:document-rotation="0"
     id="namedview4"
     inkscape:window-height="1001"
     inkscape:window-width="1920"
     inkscape:pageshadow="2"
     inkscape:pageopacity="0"
     guidetolerance="10"
     gridtolerance="10"
     objecttolerance="10"
     borderopacity="1"
     bordercolor="#666666"
     pagecolor="#ffffff" /><g
     transform="matrix(1.3333333,0,0,-1.3333333,-385.7658,528.52255)"
     inkscape:label="ink_ext_XXXXXX"
     inkscape:groupmode="layer"
     id="g10"><g
       transform="scale(0.1)"
       id="g12"><path
         id="path16"
         style="fill:#337839;fill-opacity:1;fill-rule:nonzero;stroke:none"
         d="m 4024.96,3689.11 c -10.82,-242.34 -456.07,-1270.36 -741.25,-937.9 -184.82,215.47 -87.2,817.65 65.13,1097.22 -146.07,5.73 -329.93,-113.04 -345.01,-276 -60.93,8.33 -178.03,143.3 -59.78,280.15 149.5,173 471.57,92.76 471.67,92.74 30.11,-10.76 159.8,-80.79 132.23,-187.86 -137.48,-215.99 -177.06,-811.6 -79,-847.88 99.64,-36.87 524.03,729.81 310.59,1004.97 93.29,25.72 254.52,-21.22 245.42,-225.44" /><path
         id="path18"
         style="fill:#337839;fill-opacity:1;fill-rule:nonzero;stroke:none"
         d="m 4113.63,3120.96 c 113.12,-79.43 284.46,206.1 239.18,301.86 -121.76,-80.01 -199.16,-195.73 -239.18,-301.86 z m -154.85,-277.79 c -189.44,350.98 316.7,868.62 470.58,639.64 112.25,-167.03 -167.26,-679.47 -337.81,-434.44 -17.65,-76.55 -14.03,-141.02 7.64,-172.49 68.1,-98.86 405.24,144.08 461.6,293.71 86.55,-165.07 -412.55,-677.41 -602.01,-326.42" /><path
         id="path20"
         style="fill:#337839;fill-opacity:1;fill-rule:nonzero;stroke:none"
         d="m 5211.63,3574.26 c -11.06,-95.6 -101.91,-251.01 -220.07,-218.07 88.57,-106.67 -154.44,-808.53 -410.07,-607.24 -241.9,190.48 37.6,721.39 212.05,778.78 80.99,26.64 141.66,-73.89 141.66,-99.06 -202.63,-91.93 -286.95,-456.35 -213.03,-514.29 74.55,-58.43 262.38,343.31 177.48,470.01 130.84,74.47 166.39,187.19 158.34,334.13 70.45,24.16 164.71,-48.65 153.64,-144.26 z m -203.7,-768.4 c -10.07,-36.24 -132.36,-91.19 -175.63,-141.5 77.49,-5.7 129.17,-79.4 123.89,-169.82 -15.43,-264.03 -407.7,-420.14 -632.64,-182.84 -83.82,112.52 -46.48,313.82 100.64,348.22 -26.16,-64.41 -15.48,-207.9 107.3,-260.23 122.78,-52.33 294.43,25.71 290.59,126.38 -2.86,74.45 -71.81,99.63 -130.17,60.39 -55.35,77.5 188.2,206.31 261.67,317.02 40.26,-2.01 64.41,-61.39 54.35,-97.62" /><path
         id="path22"
         style="fill:#337839;fill-opacity:1;fill-rule:nonzero;stroke:none"
         d="m 5620.9,3203.17 c 21.5,49.38 23.65,192.98 -36.14,206.11 -82.54,18.11 -324.67,-338.51 -264.29,-443.18 37.24,-64.53 279.55,203.09 300.43,237.05 h 0.02 l 0.01,0.02 z m -8.56,-453.45 c -72.15,47.16 -78.73,147.72 -54.08,261.62 -131.5,-173.22 -349.89,-414.07 -437.06,-182.12 -118.75,316.03 258.46,762.11 446.85,698.47 68.76,-23.22 112.5,-87.69 127.96,-166.45 43.92,82.63 85.18,146.08 103.93,167.18 34.23,3.02 134.92,-32.15 106.74,-136.82 -56.35,-72.46 -180.62,-398.32 -132.31,-446.63 48.31,-48.3 271.74,225.44 286.83,264.69 50.32,-48.31 -242.55,-594.8 -448.86,-459.94" /><path
         id="path24"
         style="fill:#337839;fill-opacity:1;fill-rule:nonzero;stroke:none"
         d="m 6444.29,2763.4 c -163.04,173.1 51.83,575.67 51.83,575.67 -112.72,-72.46 -262.73,-353.31 -366.34,-607.88 -15.71,-38.62 -145.94,-3.52 -169.08,115.74 -23.92,123.24 145.53,585.73 208.92,678.83 21.14,18.12 147.76,-7.89 152.79,-106.53 -38.82,-73.92 -111.93,-246.65 -147.34,-386.11 36.23,88.56 294.16,471.61 375.4,505.22 58.37,24.17 195.04,-64.36 169.82,-126.97 -27.73,-68.85 -192.71,-436.11 -120.5,-497.01 83.53,-70.45 282.82,185.18 325.08,267.71 48.31,-152.98 -317.52,-591.79 -480.58,-418.67" /><path
         id="path26"
         style="fill:#337839;fill-opacity:1;fill-rule:nonzero;stroke:none"
         d="m 6889.59,3031.57 c 0.21,-0.07 -19.38,-14.64 5.28,-0.22 52.01,92.25 44.47,200.16 26.1,266.37 51.62,-69.54 55.28,-194.75 2.15,-275.37 3.72,-1.1 7.63,-1.7 12.22,-1.87 81.59,-4.32 115.33,67.35 114.71,129.34 -0.95,112.14 -79.37,227.53 -192.56,247.71 -26.42,-103.83 -103.32,-133.08 -102.3,-245.44 0.99,-111.33 99.03,-150.97 134.4,-120.52" /><path
         id="path54"
         style="fill:#337839;fill-opacity:1;fill-rule:nonzero;stroke:none"
         d="m 3888.7,2106.68 40.15,-28.5 -54.69,-77.05 c -32.06,-0.91 -66.79,11.1 -93.92,30.35 -59.68,42.37 -74.56,114.54 -33.93,171.77 40.63,57.25 113.67,67.02 174.16,24.08 33.37,-23.69 52.96,-54.72 56.2,-89.25 l -46.71,-6.02 c -3.44,24.47 -14.63,42.62 -33.89,56.29 -36.9,26.19 -79.65,19.4 -105.26,-16.67 -25.23,-35.55 -17.9,-78.68 18.45,-104.49 11.94,-8.47 24.6,-14.19 39.96,-16.13 l 39.48,55.62" /><path
         id="path56"
         style="fill:#337839;fill-opacity:1;fill-rule:nonzero;stroke:none"
         d="m 4133.09,2044.29 -39.15,19.9 -36.79,-72.38 39.15,-19.9 c 29.37,-14.93 51.14,-8.81 62.6,13.72 11.6,22.85 3.56,43.74 -25.81,58.66 z m -40.54,-191.4 -10.65,78.19 -2.37,1.21 -41.83,21.25 -29.39,-57.84 -48.06,24.43 105.53,207.63 89.88,-45.67 c 55.47,-28.19 75.55,-74.61 51.88,-121.18 -15.83,-31.14 -43.16,-46 -76.03,-43.85 l 12.65,-90.41 -51.61,26.24" /><path
         id="path58"
         style="fill:#337839;fill-opacity:1;fill-rule:nonzero;stroke:none"
         d="m 4426.01,1769.87 -14.05,-40.9 -170.53,58.56 75.63,220.24 166.44,-57.15 -14.05,-40.9 -115.78,39.75 -16.42,-47.82 102.25,-35.11 -13.61,-39.65 -102.26,35.12 -17.5,-50.97 119.88,-41.17" /><path
         id="path60"
         style="fill:#337839;fill-opacity:1;fill-rule:nonzero;stroke:none"
         d="m 4702.43,1708.83 -8.43,-42.42 -176.9,35.14 45.4,228.47 172.65,-34.31 -8.43,-42.43 -120.11,23.87 -9.86,-49.61 106.08,-21.08 -8.17,-41.12 -106.08,21.08 -10.5,-52.88 124.35,-24.71" /><path
         id="path62"
         style="fill:#337839;fill-opacity:1;fill-rule:nonzero;stroke:none"
         d="m 5028.84,1873.79 -11.96,-232.64 -44.2,2.28 -108.72,147.2 -7.27,-141.24 -53.17,2.74 11.96,232.64 44.53,-2.3 108.39,-147.19 7.26,141.24 53.18,-2.73" /><path
         id="path64"
         style="fill:#337839;fill-opacity:1;fill-rule:nonzero;stroke:none"
         d="m 5279.79,1849.83 8.72,-60.91 106.69,15.27 6.13,-42.81 -106.69,-15.28 12.02,-83.96 -53.34,-7.64 -33.01,230.5 174.19,24.94 6.13,-42.8 -120.84,-17.31" /><path
         id="path66"
         style="fill:#337839;fill-opacity:1;fill-rule:nonzero;stroke:none"
         d="m 5672.01,1864.08 c -12.52,42.43 -51.07,62.62 -90.96,50.85 -39.88,-11.77 -61.3,-49.65 -48.78,-92.09 12.52,-42.43 51.08,-62.62 90.96,-50.85 39.89,11.77 61.31,49.65 48.78,92.09 z m -192.07,-56.68 c -19.58,66.37 17.61,130.75 88.12,151.56 70.19,20.72 136.61,-12.76 156.29,-79.44 19.67,-66.69 -17.93,-130.85 -88.13,-151.56 -70.51,-20.8 -136.7,13.08 -156.28,79.44" /><path
         id="path68"
         style="fill:#337839;fill-opacity:1;fill-rule:nonzero;stroke:none"
         d="m 5976.75,1994.53 c -19.26,39.84 -60.6,53.49 -98.04,35.38 -37.44,-18.09 -52.42,-58.96 -33.15,-98.81 19.25,-39.83 60.58,-53.47 98.02,-35.38 37.45,18.11 52.43,58.98 33.17,98.81 z m -180.32,-87.18 c -30.12,62.31 -3.9,131.9 62.3,163.9 65.9,31.86 136.88,9.63 167.14,-52.97 30.26,-62.61 3.59,-132.03 -62.31,-163.9 -66.19,-32 -137.01,-9.32 -167.13,52.97" /><path
         id="path70"
         style="fill:#337839;fill-opacity:1;fill-rule:nonzero;stroke:none"
         d="m 6230.13,2065.93 c 37.88,26.53 46.83,66.52 21.26,103.04 -25.58,36.52 -66.22,41.77 -104.1,15.24 l -40.34,-28.25 82.84,-118.27 z m -192.72,95.35 86.67,60.7 c 62.4,43.71 131.54,36.08 172,-21.7 40.47,-57.78 24.03,-125.35 -38.38,-169.07 l -86.66,-60.7 -133.63,190.77" /><path
         id="path72"
         style="fill:#337839;fill-opacity:1;fill-rule:nonzero;stroke:none"
         d="m 5482.43,2205.63 c 0.17,0.14 -0.18,-0.15 0,0 -58.96,134.67 -156.66,183.84 -207.86,190.84 86.35,4.42 186.96,-66.73 231.7,-173.78 2.92,2.7 5.52,5.88 8.12,9.94 47.36,71.39 6.84,153.48 -45.82,190.73 -95.17,67.56 -225.81,51.49 -314.54,-29.03 76.55,-80.98 59.26,-169.5 154.65,-237.12 94.52,-67.03 180.51,-2.25 173.75,48.42" /><path
         id="path74"
         style="fill:#337839;fill-opacity:1;fill-rule:nonzero;stroke:none"
         d="m 5696.35,2269.46 c 0.17,-0.01 -0.17,0.02 0,0 40.04,103.87 14.12,183.37 -9.42,215.05 48.31,-44.79 64.12,-137.58 31.16,-218.98 2.99,-0.16 6.06,0.12 9.59,0.86 63.08,12.15 85.04,77.95 76.77,126.53 -14.83,87.91 -92.89,150.66 -182.82,156.24 -2.2,-84.89 -58.35,-122.56 -43.43,-210.63 14.76,-87.27 94.88,-99.73 118.15,-69.07" /></g></g></svg>
