<?xml version="1.0" encoding="UTF-8" standalone="no"?>
<svg
   xmlns:dc="http://purl.org/dc/elements/1.1/"
   xmlns:cc="http://creativecommons.org/ns#"
   xmlns:rdf="http://www.w3.org/1999/02/22-rdf-syntax-ns#"
   xmlns:svg="http://www.w3.org/2000/svg"
   xmlns="http://www.w3.org/2000/svg"
   xmlns:sodipodi="http://sodipodi.sourceforge.net/DTD/sodipodi-0.dtd"
   xmlns:inkscape="http://www.inkscape.org/namespaces/inkscape"
   inkscape:version="1.0 (4035a4fb49, 2020-05-01)"
   sodipodi:docname="mastercard (1).svg"
   id="svg854"
   class=""
   xml:space="preserve"
   style="enable-background:new 0 0 512 512"
   viewBox="0 0 512 512"
   y="0"
   x="0"
   height="512"
   width="512"
   version="1.1"><metadata
     id="metadata860"><rdf:RDF><cc:Work
         rdf:about=""><dc:format>image/svg+xml</dc:format><dc:type
           rdf:resource="http://purl.org/dc/dcmitype/StillImage" /><dc:title></dc:title></cc:Work></rdf:RDF></metadata><defs
     id="defs858" /><sodipodi:namedview
     inkscape:current-layer="svg854"
     inkscape:window-maximized="1"
     inkscape:window-y="-9"
     inkscape:window-x="-9"
     inkscape:cy="275.31405"
     inkscape:cx="264.47347"
     inkscape:zoom="0.81054688"
     showgrid="false"
     id="namedview856"
     inkscape:window-height="1001"
     inkscape:window-width="1920"
     inkscape:pageshadow="2"
     inkscape:pageopacity="0"
     guidetolerance="10"
     gridtolerance="10"
     objecttolerance="10"
     borderopacity="1"
     bordercolor="#666666"
     pagecolor="#ffffff" /><g
     transform="matrix(0.78795181,0,0,0.84264018,54.284337,111.90843)"
     style="fill:#ffffff"
     id="g852"><path
       style="fill:#ffffff"
       id="path850"
       class=""
       data-original="#000000"
       fill="#ffffff"
       d="M 347.33984,0 C 313.57422,0 282.15234,10.222656 256,27.722656 229.84375,10.222656 198.42578,0 164.66016,0 73.867188,0 0,73.859375 0,164.64453 c 0,90.78516 73.867188,164.64453 164.66016,164.64453 33.76562,0 65.1875,-10.22265 91.33984,-27.72265 26.15625,17.5 57.57422,27.72265 91.33984,27.72265 C 438.13281,329.28906 512,255.42969 512,164.64453 512,73.859375 438.13281,0 347.33984,0 Z m 0,299.28906 c -49.03125,0 -92.02343,-26.34375 -115.57031,-65.61328 h 17.30469 c 8.28515,0 15,-6.71484 15,-15 0,-8.28125 -6.71485,-15 -15,-15 h -30.61719 c -1.85156,-6.10156 -3.28515,-12.37891 -4.26172,-18.8125 h 58.88281 c 8.28125,0 15,-6.71484 15,-15 0,-8.28125 -6.71875,-15 -15,-15 h -60.04296 c 0.46093,-6.40234 1.3789,-12.68359 2.71093,-18.80859 h 33.32813 c 8.28515,0 15,-6.71875 15,-15 0,-8.28516 -6.71485,-15 -15,-15 H 226.11328 C 247.94141,61.082031 294.07812,30 347.33984,30 421.58984,30 482,90.402344 482,164.64453 c 0,74.24219 -60.41016,134.64453 -134.66016,134.64453 z m 0,0" /></g></svg>
