<svg xmlns="http://www.w3.org/2000/svg" width="19" height="19" viewBox="0 0 19 19"><defs><clipPath id="dzl6a"><path fill="#fff" d="M0 19V0h19v19zM1.625 5.797v7.7c0 2.2 1.783 3.982 3.982 3.982h7.7c2.2 0 3.982-1.783 3.982-3.982v-7.7c0-2.2-1.783-3.982-3.982-3.982h-7.7a3.982 3.982 0 0 0-3.982 3.982z"/></clipPath></defs><g><g><path fill="#fff" d="M5.607 1.815h7.7c2.2 0 3.982 1.783 3.982 3.982v7.7c0 2.2-1.783 3.982-3.982 3.982h-7.7a3.983 3.983 0 0 1-3.982-3.982v-7.7c0-2.2 1.783-3.982 3.982-3.982z"/><path fill="none" stroke="#2b8aba" stroke-linecap="round" stroke-linejoin="round" stroke-miterlimit="50" stroke-width="2" d="M5.607 1.815h7.7c2.2 0 3.982 1.783 3.982 3.982v7.7c0 2.2-1.783 3.982-3.982 3.982h-7.7a3.983 3.983 0 0 1-3.982-3.982v-7.7c0-2.2 1.783-3.982 3.982-3.982z" clip-path="url(&quot;#dzl6a&quot;)"/></g><g><path fill="#2b8aba" d="M6.218 13.829V5.306a.53.53 0 0 1 .815-.46L14.4 9.1a.53.53 0 0 1 0 .923c-.399.235-6.911 4-7.383 4.262-.345.192-.799-.02-.799-.456z"/></g></g></svg>